/* XPM */
static char *ae4e284959f0401cafbb27eaf8cd01c8FDILw6QtqMYRXaq7[] = {
/* columns rows colors chars-per-pixel */
"29 39 76 1 ",
"  c None",
". c black",
"X c #110A0D",
"o c #1B1514",
"O c #3B190D",
"+ c #012104",
"@ c #053506",
"# c #222428",
"$ c #3C3B3C",
"% c #4C291A",
"& c #60270D",
"* c #7A3A1B",
"= c #5E3A21",
"- c #0A450F",
"; c #0A5615",
": c #08691D",
"> c #1E6516",
", c #2B4F21",
"< c #0C7726",
"1 c #38662A",
"2 c #605C21",
"3 c #20486D",
"4 c #4C4949",
"5 c #5B5657",
"6 c #676466",
"7 c #7D7C7D",
"8 c #844B26",
"9 c #915F2B",
"0 c #916548",
"q c #A4774A",
"w c #0E822A",
"e c #119030",
"r c #298121",
"t c #309A26",
"y c #35AC2A",
"u c #558B26",
"i c #42A627",
"p c #49AF2B",
"a c #4BBE2F",
"s c #78BC20",
"d c #39924A",
"f c #7A8E48",
"g c #A48123",
"h c #C5AD22",
"j c #DCCA14",
"k c #E9E70E",
"l c #FEFB03",
"z c #F3D62A",
"x c #FEF22A",
"c c #BA8E44",
"v c #AF8A65",
"b c #BDA27E",
"n c #DBA358",
"m c #D1AB7E",
"M c #F2C054",
"N c #06349C",
"B c #3F66A1",
"V c #6D84A7",
"C c #14BDF0",
"Z c #94938E",
"A c #88BB98",
"S c #A5A5A6",
"D c #B7B5B4",
"F c #D8B996",
"G c #ADD6B4",
"H c #EBC79B",
"J c #F9D8A9",
"K c #FEE9BC",
"L c #C5C3C3",
"P c #DBDBDD",
"I c #FFF5CB",
"U c #FFFEDE",
"Y c #E3E2E4",
"T c #ECEBEB",
"R c #F7F6F6",
"E c white",
/* pixels */
"                             ",
"          LZGAAAAA7S         ",
"          5.:::::;.4         ",
"         o-:iiiiii:-o        ",
"        S.-eititiiw;.7       ",
"       o.ww<<<<<<<<<w.4      ",
"      o-:ytttttttttty:-o     ",
"      .:tupsspiipsiipt-.     ",
"      .rpqzllh0qhlqqqp>.     ",
"    74-uf0jlhjj0hlkh0fu-$6   ",
"    o.<qccjkqjlchlljcqfw.o   ",
" 9qF*&&nMlzMlh0lxn0hlc8&&*Hgq",
" *qIFb8zzhjzhqqlkqbnhjh8bFK99",
" &qIUK0ll0jl00qlj0Fb0lk0KUI88",
"   &mm&0cnxllzn&0FIF9nn9mn&  ",
"   0AAg90Mzkkhq0vJIHvqcjAAq  ",
"    CCl98nnn0*=FJIIJF8glCC   ",
"    X+lc8.=q&vFKJF8O.8jl+#   ",
"    XXxg8666&vJIHq4468hxXX   ",
"    .XM80EV3&bIIb&NDE09M.X   ",
"    D7X.#RVBTIKKIPNVR#..S    ",
"      4.XJZSEIKKUEVSJXX5     ",
"       #.gHUIKKKKIUHg.7      ",
"     DX-;88qHHHHHH988;-o     ",
"    D7.dd&=2bbbbbb==&d>.S    ",
"    X.3EE@:w<<<<<<w:@EYO.o   ",
"  S$OO$65%>w<<<<<ww>%65&OO5  ",
"  Z.*99..81<:rttr:<18.oq9*.S ",
"  Z.bIE1;a2**zllz**2a;fEKb.S ",
"   Z4$5X+tuu,ussu,uut+o5$47  ",
"    #....<tyw<::<wyt<....o   ",
"       $..;taaaaaae;..5      ",
"      6%OO+@-@@@@-@+OO=4     ",
"      .&8=X........X=8O.     ",
"      .&88=O.7  7.%=88O.     ",
"      5%O%OO5S  S$oO%O%4     ",
"       o...o      ....4      ",
"                             ",
"                             "
};
