/* XPM */
static char *f16f6bfee1d1462ecef0126f94af45a79gjMrl9zpQ30kiCT[] = {
/* columns rows colors chars-per-pixel */
"64 64 25 1 ",
"  c None",
". c #28200C",
"X c #302410",
"o c #382C14",
"O c #202020",
"+ c #2C2C2C",
"@ c gray22",
"# c #403018",
"$ c #483818",
"% c #543C1C",
"& c #5C4020",
"* c #6C4824",
"= c #744C28",
"- c #484848",
"; c gray33",
": c #646464",
"> c #80502C",
", c #885830",
"< c #905C34",
"1 c #9C6038",
"2 c #A0643C",
"3 c #A86840",
"4 c #B47044",
"5 c #BC7848",
"6 c #C87C4C",
/* pixels */
"                                                                ",
"                                                                ",
"                                                                ",
"                                                                ",
"                                                                ",
"                                                                ",
"                                                                ",
"                                                                ",
"                                                                ",
"                                                                ",
"                                                                ",
"                                                                ",
"                                                                ",
"                                                                ",
"                                                                ",
"                                                                ",
"                                                                ",
"                                                                ",
"                                                                ",
"                                                                ",
"                                                                ",
"                                                                ",
"                                                                ",
"                                                                ",
"                                                                ",
"                                                                ",
"                                                                ",
"                                                                ",
"                                                                ",
"                                                                ",
"                                                                ",
"                                                                ",
"                                                                ",
"                                                                ",
"      1#   1#                                   2&     2&       ",
"      1#   1#                                   2&     2&       ",
"      1#$$$$#                                   22222222&       ",
"      1######                                   21111112&       ",
"      1#   >#                                   2$     2&       ",
"      1#   ,#     =>>>>>>>>>>>>>>>>>>>>>>>>>>>>>>=     2&       ",
"      1#   <# >,1111111111111111111111111111111111,>=$ 2&       ",
"      1#   1# &==>,1333333333333333333333333331>=*&&$. 2&       ",
"      1#   1#   &*****&&&&&$$$$$$$$$$$$$$$$$$$$$$$$$   2&       ",
"      1#$$$$#                 o###oo.           22222221&       ",
"      1######                  ***$$            211111<<%       ",
"      1#   ,#                   %%o             2$     <$       ",
"      1#   <#                   ,%o             2%     ,#       ",
"      1#   1#                   ,%o             2&     >o       ",
"      1#   1#                   ,%o             2&     >X       ",
"      1%&&&&&&&&$ooooo          2%o      $$#o...........X       ",
"      1,,,,,,,,,,######         2*o     21<,>>>>$$$$$$$$X       ",
"      1,##$$$$$1,#$$$$#         2*o     2#o....>$X.....$X       ",
"      1,#  *&$ 1,#  &%#         4*#     2&%    >$X    %$X       ",
"      1,#  =*$ 1,#  *&#         4*#     1*&    >$X    *$X       ",
"      1,#  >=$ 1,#  =*#         4*#     1=*    >$X    >$X       ",
"      1,#  >=$ 1,#  =*#         4*#     1=*    >$X    >$X       ",
"      1111111111,#$$$$#        65<&#    1<,>>>>>$XXXXXXXX       ",
"      1,#  >=$ 1,#  *&#     166<1&%%&$o 1*&    >$X    *$X       ",
"      1,#  >=$ 1,#  =*#   166>&&63>#%%%$o=*    >$X    >$X       ",
"      1,#  >=$ 1,#  =*# 1661>###53>.o#%%%$o---->$X--::>$X:      ",
"      1,#::;-@@1,#--=*4661>>#---3,&--;##%%%$#++>$X+++@>$X:::    ",
"       :::;-@@@1,#@@@-1>>>$#@++55<,&OOOo#%%%oOO>$XOOOOOO@@--:   ",
"             :::::::::>==$#OOOO1&&&oOOOO##$$.+++@@@@---::::     ",
"                       ::::::::>###.+++@@------;;;;:::::        "
};
